<?xml version="1.0" standalone="no"?>
<!DOCTYPE svg PUBLIC "-//W3C//DTD SVG 20010904//EN"
 "http://www.w3.org/TR/2001/REC-SVG-20010904/DTD/svg10.dtd">
<svg version="1.0" xmlns="http://www.w3.org/2000/svg"
 width="800.000000pt" height="423.000000pt" viewBox="0 0 800.000000 423.000000"
 preserveAspectRatio="xMidYMid meet">

<g transform="translate(0.000000,423.000000) scale(0.100000,-0.100000)"
fill="#000000" stroke="none">
<path d="M0 2115 l0 -2115 4000 0 4000 0 0 2115 0 2115 -4000 0 -4000 0 0
-2115z m2305 1430 c109 -23 208 -78 295 -165 87 -86 131 -162 160 -276 19 -72
20 -112 20 -613 0 -498 -2 -539 -19 -576 -35 -78 -113 -121 -203 -113 -76 8
-150 75 -168 154 -5 21 -10 148 -10 282 l0 242 -465 0 c-505 0 -510 -1 -553
-55 -45 -57 -37 -137 19 -191 l30 -29 247 -5 c230 -5 250 -7 289 -28 136 -71
143 -255 15 -343 -36 -24 -36 -24 -321 -24 l-286 0 -68 27 c-160 65 -277 188
-328 348 -28 89 -28 230 0 321 41 130 151 258 276 320 113 55 153 59 674 59
l473 0 -4 74 c-3 63 -8 81 -33 117 -17 23 -50 53 -74 66 l-44 23 -491 0 c-324
0 -505 4 -531 11 -86 24 -144 98 -145 187 0 81 43 150 115 183 37 17 75 19
550 19 409 0 524 -3 580 -15z m2215 5 c124 -20 244 -99 319 -211 155 -233 82
-542 -161 -685 -71 -41 -103 -49 -703 -184 -434 -97 -451 -102 -478 -132 -24
-25 -28 -36 -23 -61 4 -17 16 -41 27 -54 l22 -22 602 -3 602 -3 48 -30 c60
-37 95 -98 95 -166 0 -85 -38 -144 -115 -180 -38 -17 -77 -19 -636 -19 -387 0
-616 4 -655 11 -136 25 -273 131 -338 263 -118 238 -13 533 230 648 43 20 215
63 587 148 289 65 535 125 547 132 26 16 40 65 27 101 -20 59 2 57 -632 57
-374 0 -593 4 -618 11 -44 12 -102 59 -124 103 -21 40 -21 132 -1 171 9 17 29
42 45 57 61 58 46 57 683 58 349 0 611 -4 650 -10z m1815 -5 c172 -30 319
-104 447 -224 132 -124 229 -293 264 -464 20 -93 19 -263 0 -357 -56 -266
-225 -483 -471 -605 -185 -91 -162 -88 -715 -92 l-485 -4 -44 23 c-71 36 -104
86 -109 161 -5 82 24 139 93 182 l48 30 471 5 c510 6 490 4 596 66 165 97 258
289 231 480 -21 142 -128 296 -249 358 -102 52 -140 56 -484 56 l-318 0 0
-265 c0 -242 -2 -269 -19 -303 -76 -148 -276 -148 -352 0 -18 35 -19 64 -19
428 0 364 1 393 19 428 24 46 56 76 101 96 52 22 867 23 995 1z m-5038 -2611
c93 -31 143 -104 151 -220 8 -128 -34 -220 -122 -267 -35 -18 -58 -21 -151
-22 -107 0 -110 1 -122 25 -10 19 -13 80 -11 248 3 208 4 225 22 238 28 20
172 19 233 -2z m546 7 c22 -9 35 -40 105 -250 71 -214 79 -243 66 -256 -36
-35 -82 -8 -104 61 l-15 49 -87 3 -86 3 -17 -56 c-12 -44 -21 -58 -43 -66 -31
-12 -77 4 -69 24 2 6 39 116 81 243 62 186 81 233 99 242 28 14 40 14 70 3z
m477 -22 c8 -11 53 -88 100 -172 l85 -152 3 167 c2 159 4 168 24 179 15 8 27
8 44 0 l24 -11 0 -245 0 -245 -24 -11 c-49 -23 -74 3 -171 180 l-90 163 -5
-166 c-4 -134 -8 -169 -20 -176 -21 -13 -32 -12 -58 6 -22 15 -22 19 -22 249
0 229 0 234 22 249 26 19 67 11 88 -15z m618 15 c22 -15 22 -19 22 -247 0
-128 -4 -238 -8 -244 -14 -22 -67 -27 -85 -8 -15 14 -17 45 -17 248 0 128 4
237 8 243 7 11 29 22 47 23 6 1 21 -6 33 -15z m526 2 c67 -28 53 -101 -15 -77
-47 16 -125 14 -143 -5 -9 -8 -16 -28 -16 -44 0 -35 31 -61 102 -87 66 -23
127 -80 130 -119 4 -88 -16 -137 -67 -161 -33 -16 -34 -17 -19 -44 20 -40 18
-64 -10 -96 -21 -24 -32 -28 -94 -31 -64 -4 -71 -2 -82 18 -19 36 -6 53 38 45
30 -5 44 -2 62 13 21 17 23 23 13 44 -9 21 -20 26 -62 30 -67 7 -101 30 -101
69 0 30 1 31 33 25 136 -27 187 -14 187 48 0 40 -15 55 -100 94 -36 17 -72 37
-80 44 -76 64 -63 196 23 233 42 18 158 19 201 1z m376 -11 c8 -8 42 -72 75
-144 33 -72 62 -131 66 -131 3 0 32 57 64 128 32 70 66 135 74 144 27 29 66
33 90 9 20 -20 21 -31 21 -246 0 -212 -1 -226 -20 -245 -23 -23 -33 -24 -61
-10 -18 10 -19 23 -20 178 l-1 167 -48 -103 c-52 -109 -72 -127 -121 -110 -20
7 -38 33 -77 111 l-51 102 0 -167 c-1 -160 -2 -168 -22 -179 -16 -8 -28 -8
-45 0 l-24 11 0 237 c0 131 4 243 8 249 17 26 62 25 92 -1z m844 3 c18 -17 43
-80 95 -238 39 -118 71 -225 71 -237 0 -16 -8 -25 -25 -29 -37 -9 -66 16 -85
72 l-17 49 -86 3 -86 3 -16 -56 c-13 -44 -23 -58 -43 -66 -27 -10 -72 2 -72
19 0 7 141 431 155 465 16 39 73 47 109 15z m458 -6 c10 -8 51 -76 92 -151
113 -205 105 -204 106 -9 0 160 1 168 21 179 16 8 28 8 45 0 l24 -11 0 -245 0
-245 -24 -11 c-49 -23 -74 4 -171 178 l-90 161 -3 -159 c-2 -157 -3 -159 -27
-175 -23 -15 -27 -15 -50 0 l-25 16 0 235 c0 230 0 234 22 249 24 17 52 13 80
-12z m606 12 c22 -15 22 -20 22 -220 l0 -204 97 0 c76 0 100 -4 115 -17 24
-21 23 -39 -4 -57 -18 -13 -51 -16 -150 -16 -180 0 -168 -19 -168 265 0 212 1
226 20 245 24 24 38 25 68 4z m563 6 c18 -10 19 -24 19 -255 0 -231 -1 -245
-19 -255 -29 -15 -49 -12 -71 10 -19 19 -20 33 -20 245 0 212 1 226 20 245 22
22 42 25 71 10z m361 -14 c4 -6 8 -55 8 -109 l0 -98 73 98 c41 54 80 103 88
110 24 19 84 26 97 11 9 -11 -7 -37 -73 -123 -47 -61 -85 -114 -85 -119 0 -5
37 -59 82 -120 94 -128 101 -152 45 -150 -48 2 -63 16 -153 143 l-74 105 0
-111 c0 -88 -3 -115 -16 -127 -20 -20 -48 -20 -68 0 -14 13 -16 50 -16 247 0
128 4 237 8 243 16 25 68 25 84 0z"/>
<path d="M1144 857 c-2 -7 -3 -89 -2 -182 l3 -170 50 -3 c106 -6 155 52 156
182 1 94 -20 143 -71 168 -41 21 -128 24 -136 5z"/>
<path d="M1777 747 c-15 -56 -27 -105 -27 -109 0 -5 27 -8 60 -8 33 0 60 3 60
8 -1 14 -56 201 -61 206 -3 3 -17 -41 -32 -97z"/>
<path d="M4603 740 l-30 -110 63 0 c35 0 64 1 64 3 0 7 -60 210 -63 213 -2 2
-17 -45 -34 -106z"/>
</g>
</svg>
